===========Visit DUSTorrents for more Exclusives==============

Visit DusTorrents for more exclusives....

DusTorrents a Complete FreeLeech Site!! Registrations are absolutely FREE!!

Register by visiting..... www.dustorrents

===========Visit DUSTorrents for more Exclusives==============
[CENTER][B][COLOR=#ff0000][SIZE=4][FONT=century gothic]Bhool Bhulaiyaa - 2007 - DVDrip - 1 CD - XVid - MP3 - [D!D][/FONT][/SIZE][/COLOR][/B]



[IMG]http://i.imgur.com/PkxmH.jpg[/IMG]


[IMG]http://i.imgur.com/J0wZT.png[/IMG]
[/CENTER]
 
 

[php]
General
IMBD                             : http://www.imdb.com/title/tt0995031/
Source                           : DVD9 @ D!D
Ripper                           : D!D
Format                           : AVI
Format/Info                      : Audio Video Interleave
File size                        : 728 MiB
Duration                         : 2h 37mn
Overall bit rate                 : 647 Kbps

Video

Format                           : MPEG-4 Visual
Format profile                   : Advanced Simple@L5
Format settings, BVOP            : 2
Format settings, QPel            : Yes
Format settings, GMC             : No warppoints
Format settings, Matrix          : Default (H.263)
Codec ID                         : XVID
Codec ID/Hint                    : XviD
Duration                         : 2h 37mn
Bit rate                         : 513 Kbps
Width                            : 688 pixels
Height                           : 304 pixels
Display aspect ratio             : 2.25:1
Frame rate                       : 23.976 fps
Color space                      : YUV
Chroma subsampling               : 4:2:0
Bit depth                        : 8 bits
Scan type                        : Progressive
Compression mode                 : Lossy
Bits/(Pixel*Frame)               : 0.102
Stream size                      : 577 MiB (79%)
Writing library                  : XviD 1.2.1 (UTC 2008-12-04)

Audio

Format                           : MPEG Audio
Format version                   : Version 1
Format profile                   : Layer 3
Mode                             : Joint stereo
Mode extension                   : MS Stereo
Codec ID                         : 55
Codec ID/Hint                    : MP3
Duration                         : 2h 37mn
Bit rate mode                    : Constant
Bit rate                         : 128 Kbps
Channel(s)                       : 2 channels
Sampling rate                    : 48.0 KHz
Compression mode                 : Lossy
Stream size                      : 144 MiB (20%)
Alignment                        : Aligned on interleaves
Interleave, duration             : 167 ms (4.00 video frames)
Interleave, preload duration     : 216 ms
Writing library                  : LAME3.98r [/php]
[CENTER]

[IMG]http://i.imgur.com/HcAuh.png[/IMG]

[IMG]http://i.imgur.com/eIHaM.png[/IMG]

[IMG]http://i.imgur.com/nRfkv.png[/IMG]

[IMG]http://i.imgur.com/exu20.png[/IMG]

[IMG]http://i.imgur.com/tw7fM.png[/IMG]

[IMG]http://i.imgur.com/yX4Kx.png[/IMG]

[IMG]http://i.imgur.com/mR1JJ.png[/IMG]

[IMG]http://i.imgur.com/LqCOO.png[/IMG]

[B][SIZE=5][COLOR=#ff0000][FONT=century gothic]Freeleech !!! Enjoy !!!![/FONT][/COLOR][/SIZE][/B] 
[/CENTER]
===========Visit DUSTorrents for more Exclusives==============

Visit DusTorrents for more exclusives....

DusTorrents a Complete FreeLeech Site!! Registrations are absolutely FREE!!

Register by visiting..... www.dustorrents

===========Visit DUSTorrents for more Exclusives==============